<svg xmlns="http://www.w3.org/2000/svg" width="150" height="50" viewBox="0,0,150,50"><path fill="#444" d="M42.41 32.87L42.49 32.95L42.54 32.99Q45.58 32.57 48.78 32.69L48.74 32.64L48.80 32.71Q48.76 30.15 48.76 27.75L48.71 27.71L48.79 27.79Q48.77 25.29 48.96 22.74L48.94 22.72L48.84 22.63Q47.73 24.45 42.52 32.97ZM52.38 40.29L52.30 40.20L52.33 40.24Q50.62 39.90 48.83 39.82L48.97 39.96L48.98 39.97Q48.68 37.50 48.56 35.02L48.64 35.10L48.53 34.99Q43.28 34.88 38.56 36.29L38.64 36.37L38.49 36.22Q38.69 35.81 38.88 34.82L38.95 34.89L38.89 34.83Q40.74 31.73 44.32 25.45L44.32 25.45L44.18 25.31Q47.21 20.57 50.64 16.69L50.51 16.56L50.55 16.61Q51.53 16.52 53.21 16.26L53.09 16.14L53.15 16.20Q51.12 22.50 51.12 29.54L51.30 29.73L51.18 29.61Q51.31 31.22 51.39 32.71L51.39 32.71L52.60 32.74L52.51 32.65Q53.23 32.80 53.84 32.91L53.81 32.88L53.81 32.89Q53.99 33.94 54.26 35.88L54.20 35.83L54.13 35.75Q53.04 35.62 51.56 35.43L51.57 35.44L51.40 35.27Q51.65 37.31 52.34 40.24ZM54.10 32.52L54.12 32.54L54.16 32.59Q53.80 32.34 53.61 32.34L53.75 32.49L53.28 32.39L53.22 32.33Q53.10 30.84 53.10 29.43L53.29 29.62L53.21 29.54Q53.21 23.15 55.27 17.13L55.18 17.05L55.21 17.08Q54.57 17.47 53.13 17.85L53.10 17.82L53.13 17.86Q53.21 16.94 53.67 15.54L53.66 15.53L53.76 15.63Q52.52 16.06 50.46 16.29L50.38 16.21L50.47 16.30Q46.48 20.57 41.26 29.93L41.24 29.91L43.37 26.29L43.25 26.17Q43.01 27.37 42.74 27.95L42.63 27.84L38.21 36.89L38.11 36.79Q38.93 36.81 40.07 36.43L40.04 36.39L39.86 36.60L39.92 36.66Q39.64 37.18 39.34 38.44L39.50 38.60L39.49 38.59Q43.57 37.22 48.40 37.41L48.34 37.35L48.37 37.38Q48.30 38.23 48.49 40.21L48.63 40.35L48.61 40.33Q49.68 40.33 50.75 40.44L50.68 40.38L50.63 40.32Q50.78 41.01 51.05 42.38L51.14 42.47L51.13 42.47Q53.10 42.76 56.11 43.67L56.01 43.58L55.98 43.54Q55.01 41.43 54.09 38.15L54.09 38.15L55.53 38.60L55.63 38.71Q56.25 38.86 56.93 39.21L56.89 39.16L56.94 39.22Q56.17 36.73 56.02 35.06L55.99 35.02L55.95 34.99Q55.41 34.87 54.27 34.64L54.28 34.65L54.22 34.59Q54.15 33.45 54.15 32.57ZM46.16 32.42L46.13 32.40L46.14 32.41Q46.81 31.02 48.37 28.47L48.43 28.53L48.37 28.47Q48.38 29.44 48.35 30.39L48.35 30.40L48.28 30.32Q48.38 31.42 48.42 32.37L48.35 32.30L48.32 32.26Q47.82 32.30 47.25 32.30L47.23 32.28L47.30 32.35Q46.71 32.37 46.10 32.37Z"/><path fill="#111" d="M122.76 32.06L113.55 22.09L113.67 22.21Q114.45 25.84 114.45 29.57L114.36 29.48L114.44 29.56Q114.51 35.61 112.46 41.17L112.30 41.02L112.29 41.00Q111.24 41.28 108.99 42.05L109.10 42.16L108.99 42.04Q111.93 36.39 111.93 29.68L111.86 29.62L111.81 29.56Q111.88 20.99 107.39 13.57L107.44 13.62L107.33 13.51Q107.74 13.65 108.43 14.07L108.43 14.07L108.57 14.21Q120.55 25.32 128.39 34.57L128.54 34.71L128.41 34.59Q128.08 32.12 128.08 29.69L128.16 29.77L128.23 29.83Q128.14 22.52 130.66 16.31L130.65 16.30L130.70 16.36Q133.06 15.87 134.66 15.18L134.49 15.01L134.63 15.15Q131.32 21.32 131.02 28.48L130.88 28.34L130.94 28.40Q130.63 35.75 133.60 41.91L133.64 41.95L133.64 41.95Q133.10 41.90 132.68 41.71L132.60 41.64L132.66 41.70Q128.13 37.77 122.92 32.22L122.84 32.13ZM136.21 45.09L136.28 45.16L136.33 45.21Q136.76 45.33 137.18 45.52L137.07 45.42L138.02 45.87L138.04 45.89Q132.93 38.99 132.93 29.63L132.87 29.57L132.81 29.51Q132.80 22.26 136.11 16.02L136.17 16.08L136.13 16.04Q135.44 16.22 134.03 16.83L134.18 16.98L134.11 16.92Q134.43 16.01 135.26 14.45L135.33 14.51L135.36 14.54Q132.80 15.33 130.36 15.91L130.36 15.91L130.30 15.84Q127.77 22.41 127.77 29.83L127.73 29.79L127.69 29.76Q127.76 31.70 127.95 33.68L127.89 33.61L127.94 33.66Q123.28 27.97 118.52 23.37L118.48 23.32L108.39 13.62L108.48 13.70Q107.95 13.44 106.73 12.87L106.69 12.83L106.77 12.91Q111.50 20.50 111.50 29.59L111.47 29.56L111.64 29.73Q111.53 36.74 108.44 42.76L108.42 42.73L108.50 42.81Q108.68 42.57 110.32 41.96L110.36 42.01L110.44 42.08Q110.14 42.89 109.31 44.38L109.19 44.27L109.34 44.42Q110.68 43.89 114.14 43.09L114.02 42.96L114.03 42.97Q116.41 36.90 116.41 29.71L116.47 29.76L116.34 29.64Q116.43 27.63 116.20 25.50L116.21 25.51L116.17 25.47Q127.62 38.25 136.22 45.10Z"/><path fill="#222" d="M105.06 41.50L105.05 41.49L105.12 41.56Q103.02 41.18 100.86 41.03L100.83 41.01L100.86 41.03Q99.37 39.54 96.71 35.70L96.70 35.70L96.82 35.81Q94.50 38.78 92.10 41.22L92.17 41.29L90.00 41.60L90.03 41.62Q89.03 41.88 88.04 42.14L88.07 42.18L88.00 42.11Q92.12 37.93 95.13 33.82L95.09 33.78L95.26 33.95Q91.91 29.68 86.51 24.89L86.56 24.94L86.40 24.79Q88.69 25.59 91.39 26.01L91.38 25.99L91.53 26.14Q94.81 29.08 96.71 31.78L96.85 31.92L96.80 31.87Q98.86 28.75 101.60 26.24L101.56 26.20L101.71 26.35Q104.72 25.98 106.55 25.48L106.60 25.53L106.43 25.36Q101.95 29.06 98.26 33.63L98.35 33.73L98.40 33.77Q101.65 38.32 105.11 41.56ZM108.05 24.77L108.04 24.76L107.91 24.63Q105.01 25.47 101.47 25.81L101.57 25.90L101.56 25.90Q98.64 28.53 96.93 31.01L96.89 30.97L97.00 31.08Q96.02 29.95 94.38 27.97L94.52 28.11L94.24 28.01L94.25 28.02Q94.04 27.93 93.93 27.93L93.89 27.89L93.91 27.91Q93.17 27.10 91.53 25.65L91.49 25.61L91.48 25.59Q88.05 25.22 85.20 24.00L85.13 23.93L85.12 23.92Q90.65 28.72 94.68 33.86L94.78 33.97L94.74 33.92Q91.32 38.50 86.91 42.80L86.83 42.72L86.88 42.78Q87.08 42.63 90.58 41.80L90.71 41.92L90.71 41.92Q89.17 43.24 87.53 44.57L87.48 44.52L87.43 44.47Q90.68 43.60 93.84 43.41L93.92 43.50L93.87 43.44Q96.34 41.27 98.25 38.53L98.11 38.40L98.08 38.37Q99.51 40.13 100.72 41.31L100.68 41.27L100.85 41.44Q100.86 41.34 100.94 41.42L101.03 41.51L101.09 41.38L101.08 41.37Q102.38 42.52 103.71 43.58L103.72 43.59L103.76 43.62Q107.34 44.16 110.24 45.19L110.24 45.19L110.21 45.17Q104.11 40.77 100.41 35.60L100.46 35.64L100.34 35.52Q103.92 30.43 108.49 26.35L108.57 26.44L108.49 26.35Q107.70 26.85 106.71 27.08L106.71 27.09L104.55 27.40L104.58 27.43Q105.87 26.63 108.04 24.76Z"/><path fill="#222" d="M16.96 19.14L17.05 19.23L17.01 19.19Q18.19 23.72 18.34 26.91L18.24 26.82L18.36 26.93Q18.79 26.90 23.16 27.02L23.20 27.06L23.15 27.01Q25.76 27.10 26.14 23.64L26.07 23.57L26.12 23.62Q26.27 21.82 25.35 20.91L25.28 20.84L25.29 20.85Q24.14 20.08 22.16 19.93L22.07 19.84L22.00 19.77Q18.96 19.73 17.09 19.27ZM18.42 28.82L18.46 28.86L18.37 28.77Q18.69 34.92 16.90 40.86L16.82 40.77L16.75 40.71Q15.53 41.05 12.94 42.08L12.99 42.13L12.86 42.00Q15.75 35.56 15.41 28.10L15.40 28.09L15.40 28.09Q15.05 20.69 11.74 14.18L11.91 14.36L11.72 14.17Q16.61 17.01 23.58 17.01L23.74 17.16L23.68 17.11Q29.27 17.06 29.53 20.60L29.51 20.58L29.49 20.55Q29.60 21.19 29.52 21.80L29.65 21.93L29.43 22.93L29.50 23.00Q28.73 26.99 26.60 28.70L26.57 28.67L26.54 28.64Q25.79 29.38 24.76 29.38L24.64 29.25L22.01 29.21L22.19 29.40Q27.64 36.48 32.17 41.05L32.16 41.03L32.14 41.02Q29.95 40.28 27.02 39.94L27.02 39.94L27.11 40.03Q23.40 36.13 18.49 28.89ZM26.98 40.39L26.98 40.39L27.25 40.36L28.61 41.72L28.51 41.62Q29.13 42.20 29.78 42.80L29.75 42.77L29.70 42.73Q33.26 43.36 36.84 45.22L36.82 45.21L36.84 45.22Q29.89 38.47 24.49 31.54L24.55 31.61L26.34 31.64L26.28 31.59Q29.31 31.53 30.65 27.00L30.77 27.13L30.64 26.99Q31.40 24.86 31.40 22.16L31.31 22.07L31.36 22.12Q31.33 19.81 29.62 19.16L29.66 19.20L29.60 19.14Q29.65 18.92 29.08 18.24L28.99 18.15L28.96 18.12Q27.33 16.72 23.68 16.64L23.69 16.65L23.76 16.72Q15.76 16.46 11.08 13.45L11.03 13.40L11.17 13.54Q14.85 20.31 15.20 28.00L15.20 28.00L15.23 28.03Q15.48 35.90 12.36 42.75L12.33 42.72L12.32 42.70Q13.63 42.19 14.43 41.89L14.46 41.92L13.42 44.15L13.44 44.17Q16.27 43.23 18.93 42.74L18.96 42.76L18.80 42.60Q20.10 37.51 20.29 32.30L20.26 32.26L20.28 32.28Q23.73 37.18 26.89 40.30ZM25.66 22.39L25.74 22.47L25.81 22.55Q25.83 22.79 25.83 23.13L25.70 23.01L25.66 23.54L25.74 23.62Q25.71 24.69 25.02 25.64L25.03 25.65L25.12 25.73Q24.42 26.41 23.51 26.60L23.53 26.62L23.53 26.63Q23.27 26.63 21.67 26.67L21.69 26.69L21.62 26.62Q21.12 26.72 20.28 26.61L20.31 26.64L20.36 26.69Q20.18 25.10 19.83 22.05L19.88 22.09L19.77 21.99Q21.32 22.32 22.01 22.32L22.00 22.31L21.96 22.28Q23.71 22.20 25.66 22.39Z"/><path fill="#333" d="M68.40 40.34L68.40 40.34L68.44 40.38Q64.29 40.53 63.30 38.21L63.43 38.34L63.37 38.28Q64.10 37.29 65.66 35.50L65.73 35.57L65.80 35.64Q66.20 37.57 69.21 37.68L69.26 37.73L69.25 37.73Q72.67 37.83 74.31 36.50L74.19 36.38L74.32 36.51Q75.73 34.92 75.66 32.22L75.54 32.10L75.54 32.10Q75.46 27.10 70.66 27.33L70.65 27.33L70.52 27.20Q67.89 27.53 66.13 28.78L65.96 28.61L65.63 28.44L65.42 28.30L65.59 28.47Q65.84 25.21 65.72 22.47L65.71 22.46L65.83 22.58Q65.71 19.95 65.37 16.63L65.30 16.57L65.32 16.59Q68.97 17.53 72.77 17.42L72.79 17.43L72.84 17.48Q76.51 17.27 80.09 16.01L80.21 16.13L79.51 17.53L79.55 17.57Q79.16 18.25 78.97 19.08L79.03 19.14L79.03 19.14Q75.92 20.18 72.04 20.18L72.12 20.27L72.03 20.17Q70.53 20.12 69.04 19.97L69.11 20.03L69.12 20.05Q69.12 20.81 68.78 25.26L68.66 25.14L68.61 25.10Q69.45 24.64 71.51 24.49L71.56 24.53L71.54 24.52Q75.38 24.86 76.83 26.53L76.76 26.47L76.79 26.50Q78.08 27.94 78.35 31.78L78.41 31.84L78.45 31.89Q78.61 35.97 77.39 37.98L77.48 38.07L77.41 38.01Q75.40 39.91 72.09 40.14L72.22 40.27L72.14 40.20Q71.16 40.28 68.50 40.43ZM74.56 42.73L74.58 42.75L74.50 42.67Q77.96 42.78 79.87 41.68L79.79 41.60L79.77 41.59Q80.83 40.13 80.83 38.04L80.80 38.00L80.88 38.08Q80.77 34.89 79.82 30.78L79.80 30.76L79.80 30.76Q79.43 29.02 78.21 27.62L78.29 27.69L78.31 27.75L78.17 27.53L77.69 27.21L77.75 27.27Q77.46 26.55 76.81 25.87L76.71 25.77L76.86 25.95L76.72 25.82Q75.24 24.18 71.55 24.18L71.58 24.22L71.21 24.11L71.37 24.28Q71.30 23.55 71.49 22.45L71.61 22.57L71.55 22.52Q76.64 22.72 80.67 21.09L80.52 20.93L80.54 20.96Q81.10 19.68 82.05 16.87L82.04 16.86L79.79 17.66L79.86 17.73Q80.22 16.56 80.71 15.42L80.80 15.50L80.65 15.36Q76.80 16.80 72.69 16.87L72.78 16.97L72.81 17.00Q68.62 17.04 64.66 15.93L64.73 15.99L64.66 15.93Q65.30 20.30 65.30 24.72L65.46 24.88L65.33 24.75Q65.48 26.79 65.36 28.70L65.28 28.61L65.31 28.64Q65.54 28.79 66.11 29.10L66.07 29.06L66.06 29.05Q66.55 28.97 67.20 28.63L67.04 28.47L67.15 28.58Q67.06 29.29 66.83 30.82L66.89 30.87L66.94 30.92Q67.33 31.08 67.75 31.31L67.66 31.23L67.61 31.17Q70.38 29.41 72.24 29.41L72.31 29.47L72.26 29.42Q73.70 29.54 74.88 30.19L74.79 30.09L74.93 30.23Q75.22 31.21 75.26 32.16L75.29 32.19L75.29 32.19Q75.32 34.73 74.29 35.83L74.22 35.77L74.24 35.79Q72.93 37.07 70.69 37.30L70.60 37.21L70.65 37.26Q69.70 37.33 69.01 37.26L68.99 37.23L69.08 37.32Q68.15 37.12 67.39 36.78L67.43 36.82L67.28 36.48L67.18 36.61L67.27 36.70Q66.37 36.10 65.84 34.77L66.01 34.94L65.87 34.80Q64.59 36.26 62.91 38.39L62.86 38.33L62.91 38.39Q63.27 39.09 64.11 40.04L64.02 39.95L64.01 39.95Q65.15 41.85 67.97 42.35L68.02 42.39L68.05 42.42Q69.08 42.50 74.45 42.62Z"/></svg>